# xmcd CD database file
#
# Track frame offsets:
#	150
#	31142
#	53405
#	77833
#	105336
#	137412
#	161700
#	187392
#	204884
#	236194
#	254778
#	285239
#	304753
#	328307
#	341685
#
# Disc length: 4783 seconds
#
# Revision: 0
# Processed by: cddbd v1.5.2PL0 Copyright (c) Steve Scherf et al.
# Submitted via: CDex 1.51
#
DISCID=d412ad0f
DTITLE=Harold Land - Carmell Jones - The Harold Land Carmell Jones Quintets - CD2
DYEAR=2007
DGENRE=Jazz
TTITLE0=Hear ye!
TTITLE1=Pari passu
TTITLE2=Rosie's spirit
TTITLE3=That's good
TTITLE4=Suearl
TTITLE5=Hip trolley
TTITLE6=Beautiful love
TTITLE7=Kisses sweeter than wine
TTITLE8=Tom Dooley
TTITLE9=Scarlet ribbons
TTITLE10=Take this hammer
TTITLE11=Foggy, foggy dew
TTITLE12=Hava nagila
TTITLE13=On top of Old Smokey
TTITLE14=Blue tail fly
EXTD=YEAR: 2007
EXTT0=
EXTT1=
EXTT2=
EXTT3=
EXTT4=
EXTT5=
EXTT6=
EXTT7=
EXTT8=
EXTT9=
EXTT10=
EXTT11=
EXTT12=
EXTT13=
EXTT14=
PLAYORDER=
